{"title":"Air.Crash.Investigation.Im.The.Problem.HDTV.x264-BLOWME","uid":7318078,"size":317404164,"categoryP":"video","categoryS":"tv_shows","magnet":"?xt=urn:btih:c8ef76445d8f46d8a8ff7c72483d7d951cefcd9f&amp;dn=Air.Crash.Investigation.Im.The.Problem.HDTV.x264-BLOWME&amp;tr=udp%3A%2F%2Ftracker.openbittorrent.com%3A80&amp;tr=udp%3A%2F%2Fopen.demonii.com%3A1337&amp;tr=udp%3A%2F%2Ftracker.coppersurfer.tk%3A6969&amp;tr=udp%3A%2F%2Fexodus.desync.com%3A6969","seeders":0,"leechers":0,"uploader":"k4l3ss1n","files":3,"time":1338545876,"description":" &lt;a href=&quot;\nhttp://i.imgur.com/sUo2S.png&quot; rel=&quot;nofollow&quot; target=&quot;_NEW&quot;&gt;\nhttp://i.imgur.com/sUo2S.png&lt;/a&gt; &lt;a href=&quot;\nhttp://www.cineflixproductions.com/shows/28-Mayday&quot; rel=&quot;nofollow&quot; target=&quot;_NEW&quot;&gt;\nhttp://www.cineflixproductions.com/shows/28-Mayday&lt;/a&gt; &lt;a href=&quot;\nhttp://en.wikipedia.org/wiki/List_of_Mayday_episodes#Season_11_.282011.29&quot; rel=&quot;nofollow&quot; target=&quot;_NEW&quot;&gt;\nhttp://en.wikipedia.org/wiki/List_of_Mayday_episodes#Season_11_.282011.29&lt;/a&gt;\n--\n\nMayday aka Air Crash Investigation S11E10 I'm The Problem\n\nOn 7 December 1987, an angry former USAir employee by the name of David Burke boarded PSA Flight 1771 en route to San Francisco. Burke incapacitated the pilots after taking off. Shortly, thereafter the plane crashed in a cattle ranch at the speed of sound in San Luis Obispo County, California. All 43 people on board, including Burke, were killed. Investigators from the FBI found out that David Burke's motive was to kill Ray Thomson after being fired from his job days earlier. USAir was in the process of merging with PSA at the time of the crash.\n--\n\nGeneral\nComplete name : Air.Crash.Investigation.Im.The.Problem.HDTV.x264-BLOWME.mp4\nFormat : MPEG-4\nFormat profile : Base Media\nCodec ID : isom\nFile size : 303 MiB\nDuration : 44mn 59s\nOverall bit rate mode : Variable\nOverall bit rate : 941 Kbps\nEncoded date : UTC 2012-05-30 12:53:59\nTagged date : UTC 2012-05-30 12:53:59\n\nVideo\nID : 1\nFormat : AVC\nFormat/Info : Advanced Video Codec\nFormat profile : &lt;a class=&quot;__cf_email__&quot; href=&quot;/cdn-cgi/l/email-protection&quot; data-cfemail=&quot;f7bf9e909fb7bbc4d9c6&quot;&gt;[email&amp;#160;protected]&lt;/a&gt;&lt;script cf-hash='f9e31' type=&quot;text/javascript&quot;&gt;\n/* &lt;![CDATA[ */!function(){try{var t=&quot;currentScript&quot;in document?document.currentScript:function(){for(var t=document.getElementsByTagName(&quot;script&quot;),e=t.length;e--;)if(t[e].getAttribute(&quot;cf-hash&quot;))return t[e]}();if(t&amp;&amp;t.previousSibling){var e,r,n,i,c=t.previousSibling,a=c.getAttribute(&quot;data-cfemail&quot;);if(a){for(e=&quot;&quot;,r=parseInt(a.substr(0,2),16),n=2;a.length-n;n+=2)i=parseInt(a.substr(n,2),16)^r,e+=String.fromCharCode(i);e=document.createTextNode(e),c.parentNode.replaceChild(e,c)}}}catch(u){}}();/* ]]&gt; */&lt;/script&gt;\nFormat settings, CABAC : Yes\nFormat settings, ReFrames : 5 frames\nCodec ID : avc1\nCodec ID/Info : Advanced Video Coding\nDuration : 44mn 59s\nBit rate : 815 Kbps\nMaximum bit rate : 3 514 Kbps\nWidth : 720 pixels\nHeight : 404 pixels\nDisplay aspect ratio : 16:9\nFrame rate mode : Constant\nFrame rate : 25.000 fps\nColor space : YUV\nChroma subsampling : 4:2:0\nBit depth : 8 bits\nScan type : Progressive\nBits/(Pixel*Frame) : 0.112\nStream size : 262 MiB (87%)\nWriting library : x264 core 125 r2200 999b753\nEncoding settings : cabac=1 / ref=5 / deblock=1:0:0 / analyse=0x3:0x113 / me=umh / subme=8 / psy=1 / psy_rd=1.00:0.00 / mixed_ref=1 / me_range=16 / chroma_me=1 / trellis=1 / 8x8dct=1 / cqm=0 / deadzone=21,11 / fast_pskip=1 / chroma_qp_offset=-2 / threads=6 / lookahead_threads=1 / sliced_threads=0 / nr=0 / decimate=1 / interlaced=0 / bluray_compat=0 / constrained_intra=0 / bframes=3 / b_pyramid=2 / b_adapt=2 / b_bias=0 / direct=3 / weightb=1 / open_gop=0 / weightp=2 / keyint=250 / keyint_min=25 / scenecut=40 / intra_refresh=0 / rc_lookahead=50 / rc=crf / mbtree=1 / crf=21.0 / qcomp=0.60 / qpmin=0 / qpmax=69 / qpstep=4 / ip_ratio=1.40 / aq=1:1.00\nEncoded date : UTC 2012-05-30 12:17:34\nTagged date : UTC 2012-05-30 12:54:11\nMatrix coefficients : BT.709-5, BT.1361, IEC 61966-2-4 709, SMPTE RP177\n\nAudio\nID : 2\nFormat : AAC\nFormat/Info : Advanced Audio Codec\nFormat profile : LC\nCodec ID : 40\nDuration : 44mn 59s\nBit rate mode : Variable\nBit rate : 121 Kbps\nMaximum bit rate : 145 Kbps\nChannel(s) : 2 channels\nChannel positions : Front: L R\nSampling rate : 48.0 KHz\nCompression mode : Lossy\nDelay relative to video : -3ms\nStream size : 39.0 MiB (13%)\nEncoded date : UTC 2012-05-30 12:54:10\nTagged date : UTC 2012-05-30 12:54:11\n--\n\nEnglish subtitle: No","torrent":{"xt":"urn:btih:c8ef76445d8f46d8a8ff7c72483d7d951cefcd9f","amp;dn":"Air.Crash.Investigation.Im.The.Problem.HDTV.x264-BLOWME","amp;tr":["udp%3A%2F%2Ftracker.openbittorrent.com%3A80","udp%3A%2F%2Fopen.demonii.com%3A1337","udp%3A%2F%2Ftracker.coppersurfer.tk%3A6969","udp%3A%2F%2Fexodus.desync.com%3A6969"],"infoHash":"c8ef76445d8f46d8a8ff7c72483d7d951cefcd9f","infoHashBuffer":{"type":"Buffer","data":[200,239,118,68,93,143,70,216,168,255,124,114,72,61,125,149,28,239,205,159]},"announce":[],"urlList":[]}}